<?xml version="1.0" standalone="no"?>
<svg viewBox="0 0 200 200" xmlns="http://www.w3.org/2000/svg">
  <path fill="#A7F0BA" d="M43,-75.1C56.3,-66.9,67.9,-56.4,75.1,-43.5C82.3,-30.6,85.2,-15.3,84.9,-0.2C84.6,15,81.3,30,74.8,44.2C68.3,58.3,58.7,71.7,45.7,79.9C32.8,88,16.4,91,0.6,90C-15.2,89,-30.5,84.1,-43.1,75.8C-55.8,67.4,-65.8,55.6,-74,42.4C-82.2,29.2,-88.5,14.6,-88.5,0C-88.5,-14.6,-82.3,-29.3,-74.6,-43.3C-66.9,-57.3,-57.7,-70.7,-45,-79.2C-32.3,-87.8,-16.2,-91.5,-0.6,-90.4C14.9,-89.3,29.8,-83.3,43,-75.1Z" transform="translate(100 100)" />
</svg>
